<svg width="1430" height="768" viewBox="0 0 1430 768" fill="none" xmlns="http://www.w3.org/2000/svg">
<rect width="1430" height="768" fill="url(#paint0_linear)"/>
<rect width="1430" height="768" fill="#f8f8f8"/>
<g clip-path="url(#clip0)">
<rect x="389" y="442" width="654" height="188" rx="40" fill="white"/>
<rect x="389" y="140" width="654" height="119" rx="40" fill="#6A00D3" fill-opacity="0.93"/>
<rect x="389" y="193" width="654" height="382" fill="white"/>
<rect x="532" y="448" width="345" height="182" fill="#ECECEC"/>
<path d="M657 569.566C686.798 562.694 704.007 561.615 736.5 569.566" stroke="#B3B3B3"/>
<rect x="842.627" y="432.801" width="48.8389" height="16.8296" transform="rotate(21 842.627 432.801)" fill="white"/>
<path d="M833.701 453.172C832.858 449.966 836.057 447.185 839.115 448.466L874.411 463.249C877.146 464.395 877.728 468.013 875.49 469.958L849.921 492.184C847.684 494.129 844.182 493.05 843.429 490.182L833.701 453.172Z" fill="#C4C4C4"/>
<ellipse cx="617.5" cy="515" rx="6.5" ry="7" fill="#C4C4C4"/>
<ellipse rx="9" ry="8.5" transform="matrix(-1 0 0 1 532 165.5)" fill="white"/>
<ellipse cx="760.5" cy="515" rx="6.5" ry="7" fill="#C4C4C4"/>
<ellipse rx="9" ry="8.5" transform="matrix(-1 0 0 1 486 165.5)" fill="white"/>
<ellipse rx="9" ry="8.5" transform="matrix(-1 0 0 1 440 165.5)" fill="white"/>
<path d="M662.281 316.078H671.75V323.156H662.281V339H653.562V323.156H622.484V318.047L653.047 270.75H662.281V316.078ZM632.328 316.078H653.562V282.609L652.531 284.484L632.328 316.078ZM736.775 309.891C736.775 320.047 735.041 327.594 731.572 332.531C728.103 337.469 722.681 339.938 715.306 339.938C708.025 339.938 702.634 337.531 699.134 332.719C695.634 327.875 693.822 320.656 693.697 311.062V299.484C693.697 289.453 695.431 282 698.9 277.125C702.369 272.25 707.806 269.812 715.213 269.812C722.556 269.812 727.963 272.172 731.431 276.891C734.9 281.578 736.681 288.828 736.775 298.641V309.891ZM728.103 298.031C728.103 290.688 727.072 285.344 725.009 282C722.947 278.625 719.681 276.938 715.213 276.938C710.775 276.938 707.541 278.609 705.509 281.953C703.478 285.297 702.431 290.438 702.369 297.375V311.25C702.369 318.625 703.431 324.078 705.556 327.609C707.713 331.109 710.963 332.859 715.306 332.859C719.588 332.859 722.759 331.203 724.822 327.891C726.916 324.578 728.009 319.359 728.103 312.234V298.031ZM798.894 316.078H808.363V323.156H798.894V339H790.175V323.156H759.097V318.047L789.659 270.75H798.894V316.078ZM768.941 316.078H790.175V282.609L789.144 284.484L768.941 316.078Z" fill="black"/>
<path d="M662.281 316.078H658.281V320.078H662.281V316.078ZM671.75 316.078H675.75V312.078H671.75V316.078ZM671.75 323.156V327.156H675.75V323.156H671.75ZM662.281 323.156V319.156H658.281V323.156H662.281ZM662.281 339V343H666.281V339H662.281ZM653.562 339H649.562V343H653.562V339ZM653.562 323.156H657.562V319.156H653.562V323.156ZM622.484 323.156H618.484V327.156H622.484V323.156ZM622.484 318.047L619.125 315.876L618.484 316.867V318.047H622.484ZM653.047 270.75V266.75H650.869L649.687 268.579L653.047 270.75ZM662.281 270.75H666.281V266.75H662.281V270.75ZM632.328 316.078L628.958 313.923L625.022 320.078H632.328V316.078ZM653.562 316.078V320.078H657.562V316.078H653.562ZM653.562 282.609H657.562L650.058 280.682L653.562 282.609ZM652.531 284.484L655.901 286.639L655.972 286.528L656.036 286.412L652.531 284.484ZM662.281 320.078H671.75V312.078H662.281V320.078ZM667.75 316.078V323.156H675.75V316.078H667.75ZM671.75 319.156H662.281V327.156H671.75V319.156ZM658.281 323.156V339H666.281V323.156H658.281ZM662.281 335H653.562V343H662.281V335ZM657.562 339V323.156H649.562V339H657.562ZM653.562 319.156H622.484V327.156H653.562V319.156ZM626.484 323.156V318.047H618.484V323.156H626.484ZM625.844 320.218L656.406 272.921L649.687 268.579L619.125 315.876L625.844 320.218ZM653.047 274.75H662.281V266.75H653.047V274.75ZM658.281 270.75V316.078H666.281V270.75H658.281ZM632.328 320.078H653.562V312.078H632.328V320.078ZM657.562 316.078V282.609H649.562V316.078H657.562ZM650.058 280.682L649.026 282.557L656.036 286.412L657.067 284.537L650.058 280.682ZM649.161 282.329L628.958 313.923L635.698 318.233L655.901 286.639L649.161 282.329ZM699.134 332.719L695.892 335.061L695.899 335.071L699.134 332.719ZM693.697 311.062H689.697V311.089L689.697 311.115L693.697 311.062ZM731.431 276.891L728.208 279.26L728.216 279.27L731.431 276.891ZM736.775 298.641H740.775V298.622L740.775 298.602L736.775 298.641ZM725.009 282L721.596 284.086L721.601 284.093L721.605 284.1L725.009 282ZM702.369 297.375L698.369 297.339L698.369 297.357V297.375H702.369ZM705.556 327.609L702.129 329.672L702.14 329.69L702.151 329.707L705.556 327.609ZM724.822 327.891L721.441 325.753L721.433 325.765L721.426 325.776L724.822 327.891ZM728.103 312.234L732.103 312.287L732.103 312.261V312.234H728.103ZM732.775 309.891C732.775 319.73 731.069 326.288 728.299 330.232L734.845 334.831C739.012 328.899 740.775 320.364 740.775 309.891H732.775ZM728.299 330.232C725.749 333.861 721.706 335.938 715.306 335.938V343.938C723.657 343.938 730.457 341.077 734.845 334.831L728.299 330.232ZM715.306 335.938C708.983 335.938 704.946 333.908 702.369 330.366L695.899 335.071C700.323 341.154 707.067 343.938 715.306 343.938V335.938ZM702.377 330.376C699.571 326.493 697.817 320.238 697.697 311.01L689.697 311.115C689.827 321.074 691.698 329.257 695.892 335.061L702.377 330.376ZM697.697 311.062V299.484H689.697V311.062H697.697ZM697.697 299.484C697.697 289.777 699.401 283.321 702.159 279.444L695.641 274.806C691.462 280.679 689.697 289.129 689.697 299.484H697.697ZM702.159 279.444C704.697 275.877 708.755 273.812 715.213 273.812V265.812C706.858 265.812 700.04 268.623 695.641 274.806L702.159 279.444ZM715.213 273.812C721.643 273.812 725.683 275.825 728.208 279.26L734.654 274.521C730.242 268.519 723.469 265.812 715.213 265.812V273.812ZM728.216 279.27C730.943 282.956 732.685 289.19 732.775 298.679L740.775 298.602C740.678 288.466 738.857 280.201 734.647 274.511L728.216 279.27ZM732.775 298.641V309.891H740.775V298.641H732.775ZM732.103 298.031C732.103 290.492 731.077 284.218 728.414 279.9L721.605 284.1C723.067 286.47 724.103 290.883 724.103 298.031H732.103ZM728.423 279.914C725.528 275.177 720.859 272.938 715.213 272.938V280.938C718.503 280.938 720.366 282.073 721.596 284.086L728.423 279.914ZM715.213 272.938C709.601 272.938 704.956 275.159 702.091 279.876L708.928 284.03C710.125 282.059 711.949 280.938 715.213 280.938V272.938ZM702.091 279.876C699.497 284.147 698.434 290.163 698.369 297.339L706.369 297.411C706.429 290.712 707.46 286.447 708.928 284.03L702.091 279.876ZM698.369 297.375V311.25H706.369V297.375H698.369ZM698.369 311.25C698.369 318.857 699.437 325.199 702.129 329.672L708.984 325.547C707.425 322.957 706.369 318.393 706.369 311.25H698.369ZM702.151 329.707C705.084 334.468 709.669 336.859 715.306 336.859V328.859C712.256 328.859 710.341 327.75 708.962 325.511L702.151 329.707ZM715.306 336.859C720.809 336.859 725.344 334.62 728.217 330.005L721.426 325.776C720.175 327.786 718.366 328.859 715.306 328.859V336.859ZM728.203 330.028C730.898 325.763 732.006 319.632 732.103 312.287L724.103 312.182C724.013 319.087 722.933 323.393 721.441 325.753L728.203 330.028ZM732.103 312.234V298.031H724.103V312.234H732.103ZM798.894 316.078H794.894V320.078H798.894V316.078ZM808.363 316.078H812.363V312.078H808.363V316.078ZM808.363 323.156V327.156H812.363V323.156H808.363ZM798.894 323.156V319.156H794.894V323.156H798.894ZM798.894 339V343H802.894V339H798.894ZM790.175 339H786.175V343H790.175V339ZM790.175 323.156H794.175V319.156H790.175V323.156ZM759.097 323.156H755.097V327.156H759.097V323.156ZM759.097 318.047L755.737 315.876L755.097 316.867V318.047H759.097ZM789.659 270.75V266.75H787.482L786.3 268.579L789.659 270.75ZM798.894 270.75H802.894V266.75H798.894V270.75ZM768.941 316.078L765.571 313.923L761.635 320.078H768.941V316.078ZM790.175 316.078V320.078H794.175V316.078H790.175ZM790.175 282.609H794.175L786.67 280.682L790.175 282.609ZM789.144 284.484L792.514 286.639L792.585 286.528L792.649 286.412L789.144 284.484ZM798.894 320.078H808.363V312.078H798.894V320.078ZM804.363 316.078V323.156H812.363V316.078H804.363ZM808.363 319.156H798.894V327.156H808.363V319.156ZM794.894 323.156V339H802.894V323.156H794.894ZM798.894 335H790.175V343H798.894V335ZM794.175 339V323.156H786.175V339H794.175ZM790.175 319.156H759.097V327.156H790.175V319.156ZM763.097 323.156V318.047H755.097V323.156H763.097ZM762.456 320.218L793.019 272.921L786.3 268.579L755.737 315.876L762.456 320.218ZM789.659 274.75H798.894V266.75H789.659V274.75ZM794.894 270.75V316.078H802.894V270.75H794.894ZM768.941 320.078H790.175V312.078H768.941V320.078ZM794.175 316.078V282.609H786.175V316.078H794.175ZM786.67 280.682L785.639 282.557L792.649 286.412L793.68 284.537L786.67 280.682ZM785.774 282.329L765.571 313.923L772.311 318.233L792.514 286.639L785.774 282.329Z" fill="black"/>
</g>
<defs>
<linearGradient id="paint0_linear" x1="0" y1="768" x2="1430" y2="-1.06069e-05" gradientUnits="userSpaceOnUse">
<stop stop-color="#F3F3F3" stop-opacity="0.38"/>
<stop offset="1" stop-color="#C84BD2" stop-opacity="0.85"/>
</linearGradient>
<clipPath id="clip0">
<rect width="656" height="490" fill="white" transform="translate(387 139)"/>
</clipPath>
</defs>
</svg>