<svg width="656" height="490" viewBox="0 0 656 490" fill="none" xmlns="http://www.w3.org/2000/svg">
<g clip-path="url(#clip0)">
<path d="M654 56H0V446C0 468.091 17.9086 486 40 486H614C636.091 486 654 468.091 654 446V56Z" fill="white"/>
<rect x="145" y="309" width="345" height="182" fill="#EFEFEF" fill-opacity="0.85"/>
<path fill-rule="evenodd" clip-rule="evenodd" d="M40 -3C17.9086 -3 0 14.9086 0 37V56H654V37C654 14.9086 636.091 -3 614 -3H40Z" fill="#6A00D3" fill-opacity="0.93"/>
<path d="M270 430.566C299.798 423.694 317.007 422.615 349.5 430.566" stroke="#B3B3B3"/>
<rect x="455.627" y="293.801" width="48.8389" height="16.8296" transform="rotate(21 455.627 293.801)" fill="white"/>
<path d="M446.701 314.172C445.858 310.966 449.057 308.185 452.115 309.466L487.411 324.249C490.146 325.395 490.728 329.013 488.49 330.958L462.921 353.184C460.684 355.129 457.182 354.05 456.429 351.182L446.701 314.172Z" fill="#C4C4C4"/>
<ellipse cx="230.5" cy="376" rx="6.5" ry="7" fill="#C4C4C4"/>
<ellipse rx="9" ry="8.5" transform="matrix(-1 0 0 1 145 26.5)" fill="white"/>
<ellipse cx="373.5" cy="376" rx="6.5" ry="7" fill="#C4C4C4"/>
<ellipse rx="9" ry="8.5" transform="matrix(-1 0 0 1 99 26.5)" fill="white"/>
<ellipse rx="9" ry="8.5" transform="matrix(-1 0 0 1 53 26.5)" fill="white"/>
<path d="M275.281 177.078H284.75V184.156H275.281V200H266.562V184.156H235.484V179.047L266.047 131.75H275.281V177.078ZM245.328 177.078H266.562V143.609L265.531 145.484L245.328 177.078ZM349.775 170.891C349.775 181.047 348.041 188.594 344.572 193.531C341.103 198.469 335.681 200.938 328.306 200.938C321.025 200.938 315.634 198.531 312.134 193.719C308.634 188.875 306.822 181.656 306.697 172.062V160.484C306.697 150.453 308.431 143 311.9 138.125C315.369 133.25 320.806 130.812 328.213 130.812C335.556 130.812 340.963 133.172 344.431 137.891C347.9 142.578 349.681 149.828 349.775 159.641V170.891ZM341.103 159.031C341.103 151.688 340.072 146.344 338.009 143C335.947 139.625 332.681 137.938 328.213 137.938C323.775 137.938 320.541 139.609 318.509 142.953C316.478 146.297 315.431 151.438 315.369 158.375V172.25C315.369 179.625 316.431 185.078 318.556 188.609C320.713 192.109 323.963 193.859 328.306 193.859C332.588 193.859 335.759 192.203 337.822 188.891C339.916 185.578 341.009 180.359 341.103 173.234V159.031ZM411.894 177.078H421.363V184.156H411.894V200H403.175V184.156H372.097V179.047L402.659 131.75H411.894V177.078ZM381.941 177.078H403.175V143.609L402.144 145.484L381.941 177.078Z" fill="black"/>
<path d="M275.281 177.078H271.281V181.078H275.281V177.078ZM284.75 177.078H288.75V173.078H284.75V177.078ZM284.75 184.156V188.156H288.75V184.156H284.75ZM275.281 184.156V180.156H271.281V184.156H275.281ZM275.281 200V204H279.281V200H275.281ZM266.562 200H262.562V204H266.562V200ZM266.562 184.156H270.562V180.156H266.562V184.156ZM235.484 184.156H231.484V188.156H235.484V184.156ZM235.484 179.047L232.125 176.876L231.484 177.867V179.047H235.484ZM266.047 131.75V127.75H263.869L262.687 129.579L266.047 131.75ZM275.281 131.75H279.281V127.75H275.281V131.75ZM245.328 177.078L241.958 174.923L238.022 181.078H245.328V177.078ZM266.562 177.078V181.078H270.562V177.078H266.562ZM266.562 143.609H270.562L263.058 141.682L266.562 143.609ZM265.531 145.484L268.901 147.639L268.972 147.528L269.036 147.412L265.531 145.484ZM275.281 181.078H284.75V173.078H275.281V181.078ZM280.75 177.078V184.156H288.75V177.078H280.75ZM284.75 180.156H275.281V188.156H284.75V180.156ZM271.281 184.156V200H279.281V184.156H271.281ZM275.281 196H266.562V204H275.281V196ZM270.562 200V184.156H262.562V200H270.562ZM266.562 180.156H235.484V188.156H266.562V180.156ZM239.484 184.156V179.047H231.484V184.156H239.484ZM238.844 181.218L269.406 133.921L262.687 129.579L232.125 176.876L238.844 181.218ZM266.047 135.75H275.281V127.75H266.047V135.75ZM271.281 131.75V177.078H279.281V131.75H271.281ZM245.328 181.078H266.562V173.078H245.328V181.078ZM270.562 177.078V143.609H262.562V177.078H270.562ZM263.058 141.682L262.026 143.557L269.036 147.412L270.067 145.537L263.058 141.682ZM262.161 143.329L241.958 174.923L248.698 179.233L268.901 147.639L262.161 143.329ZM312.134 193.719L308.892 196.061L308.899 196.071L312.134 193.719ZM306.697 172.062H302.697V172.089L302.697 172.115L306.697 172.062ZM344.431 137.891L341.208 140.26L341.216 140.27L344.431 137.891ZM349.775 159.641H353.775V159.622L353.775 159.602L349.775 159.641ZM338.009 143L334.596 145.086L334.601 145.093L334.605 145.1L338.009 143ZM315.369 158.375L311.369 158.339L311.369 158.357V158.375H315.369ZM318.556 188.609L315.129 190.672L315.14 190.69L315.151 190.707L318.556 188.609ZM337.822 188.891L334.441 186.753L334.433 186.765L334.426 186.776L337.822 188.891ZM341.103 173.234L345.103 173.287L345.103 173.261V173.234H341.103ZM345.775 170.891C345.775 180.73 344.069 187.288 341.299 191.232L347.845 195.831C352.012 189.899 353.775 181.364 353.775 170.891H345.775ZM341.299 191.232C338.749 194.861 334.706 196.938 328.306 196.938V204.938C336.657 204.938 343.457 202.077 347.845 195.831L341.299 191.232ZM328.306 196.938C321.983 196.938 317.946 194.908 315.369 191.366L308.899 196.071C313.323 202.154 320.067 204.938 328.306 204.938V196.938ZM315.377 191.376C312.571 187.493 310.817 181.238 310.697 172.01L302.697 172.115C302.827 182.074 304.698 190.257 308.892 196.061L315.377 191.376ZM310.697 172.062V160.484H302.697V172.062H310.697ZM310.697 160.484C310.697 150.777 312.401 144.321 315.159 140.444L308.641 135.806C304.462 141.679 302.697 150.129 302.697 160.484H310.697ZM315.159 140.444C317.697 136.877 321.755 134.812 328.213 134.812V126.812C319.858 126.812 313.04 129.623 308.641 135.806L315.159 140.444ZM328.213 134.812C334.643 134.812 338.683 136.825 341.208 140.26L347.654 135.521C343.242 129.519 336.469 126.812 328.213 126.812V134.812ZM341.216 140.27C343.943 143.956 345.685 150.19 345.775 159.679L353.775 159.602C353.678 149.466 351.857 141.201 347.647 135.511L341.216 140.27ZM345.775 159.641V170.891H353.775V159.641H345.775ZM345.103 159.031C345.103 151.492 344.077 145.218 341.414 140.9L334.605 145.1C336.067 147.47 337.103 151.883 337.103 159.031H345.103ZM341.423 140.914C338.528 136.177 333.859 133.938 328.213 133.938V141.938C331.503 141.938 333.366 143.073 334.596 145.086L341.423 140.914ZM328.213 133.938C322.601 133.938 317.956 136.159 315.091 140.876L321.928 145.03C323.125 143.059 324.949 141.938 328.213 141.938V133.938ZM315.091 140.876C312.497 145.147 311.434 151.163 311.369 158.339L319.369 158.411C319.429 151.712 320.46 147.447 321.928 145.03L315.091 140.876ZM311.369 158.375V172.25H319.369V158.375H311.369ZM311.369 172.25C311.369 179.857 312.437 186.199 315.129 190.672L321.984 186.547C320.425 183.957 319.369 179.393 319.369 172.25H311.369ZM315.151 190.707C318.084 195.468 322.669 197.859 328.306 197.859V189.859C325.256 189.859 323.341 188.75 321.962 186.511L315.151 190.707ZM328.306 197.859C333.809 197.859 338.344 195.62 341.217 191.005L334.426 186.776C333.175 188.786 331.366 189.859 328.306 189.859V197.859ZM341.203 191.028C343.898 186.763 345.006 180.632 345.103 173.287L337.103 173.182C337.013 180.087 335.933 184.393 334.441 186.753L341.203 191.028ZM345.103 173.234V159.031H337.103V173.234H345.103ZM411.894 177.078H407.894V181.078H411.894V177.078ZM421.363 177.078H425.363V173.078H421.363V177.078ZM421.363 184.156V188.156H425.363V184.156H421.363ZM411.894 184.156V180.156H407.894V184.156H411.894ZM411.894 200V204H415.894V200H411.894ZM403.175 200H399.175V204H403.175V200ZM403.175 184.156H407.175V180.156H403.175V184.156ZM372.097 184.156H368.097V188.156H372.097V184.156ZM372.097 179.047L368.737 176.876L368.097 177.867V179.047H372.097ZM402.659 131.75V127.75H400.482L399.3 129.579L402.659 131.75ZM411.894 131.75H415.894V127.75H411.894V131.75ZM381.941 177.078L378.571 174.923L374.635 181.078H381.941V177.078ZM403.175 177.078V181.078H407.175V177.078H403.175ZM403.175 143.609H407.175L399.67 141.682L403.175 143.609ZM402.144 145.484L405.514 147.639L405.585 147.528L405.649 147.412L402.144 145.484ZM411.894 181.078H421.363V173.078H411.894V181.078ZM417.363 177.078V184.156H425.363V177.078H417.363ZM421.363 180.156H411.894V188.156H421.363V180.156ZM407.894 184.156V200H415.894V184.156H407.894ZM411.894 196H403.175V204H411.894V196ZM407.175 200V184.156H399.175V200H407.175ZM403.175 180.156H372.097V188.156H403.175V180.156ZM376.097 184.156V179.047H368.097V184.156H376.097ZM375.456 181.218L406.019 133.921L399.3 129.579L368.737 176.876L375.456 181.218ZM402.659 135.75H411.894V127.75H402.659V135.75ZM407.894 131.75V177.078H415.894V131.75H407.894ZM381.941 181.078H403.175V173.078H381.941V181.078ZM407.175 177.078V143.609H399.175V177.078H407.175ZM399.67 141.682L398.639 143.557L405.649 147.412L406.68 145.537L399.67 141.682ZM398.774 143.329L378.571 174.923L385.311 179.233L405.514 147.639L398.774 143.329Z" fill="black"/>
</g>
<defs>
<clipPath id="clip0">
<rect width="656" height="490" fill="white"/>
</clipPath>
</defs>
</svg>